<svg width="800" height="800" viewBox="0 0 800 800" fill="none" xmlns="http://www.w3.org/2000/svg">
<g clip-path="url(#clip0_36_5)">
<path d="M699.145 665.131C761.821 594.497 800 501.641 800 400C800 294.248 758.676 198.028 691.421 126.428V126.414C691.365 126.331 691.283 126.303 691.241 126.234C621.186 51.7655 523.034 4.09655 413.862 0.358621L413.848 0.344828L406.055 0.137931C404.041 0.0689655 402.028 0 400 0C397.972 0 395.959 0.0689655 393.945 0.137931L386.179 0.344828L386.166 0.358621C276.993 4.09655 178.841 51.7655 108.786 126.234C108.731 126.303 108.648 126.331 108.607 126.414L108.593 126.441C41.3241 198.028 0 294.248 0 400C0 501.641 38.1793 594.497 100.855 665.131C100.938 665.255 100.938 665.393 101.034 665.517C101.283 665.862 101.641 666.028 101.903 666.345C172.331 745.076 273.379 795.793 386.152 799.655L386.166 799.669L393.931 799.876C395.959 799.931 397.972 800 400 800C402.028 800 404.041 799.931 406.055 799.862L413.821 799.655L413.834 799.641C526.731 795.765 627.89 744.952 698.317 666.055C698.497 665.821 698.786 665.752 698.952 665.503C699.062 665.393 699.062 665.255 699.145 665.131ZM27.931 413.793H193.49C195.048 472.262 206.469 529.076 226.8 582.303C187.572 596.497 150.069 615.531 114.924 639.283C63.2414 577.807 31.0759 499.448 27.931 413.793ZM122.455 152.041C156.772 174.359 193.31 192.234 231.421 205.586C208.083 262.234 195.172 323.31 193.49 386.207H27.931C31.2276 296.455 66.3724 214.731 122.455 152.041ZM772.069 386.207H606.51C604.828 323.31 591.917 262.234 568.579 205.586C606.69 192.234 643.228 174.359 677.545 152.041C733.628 214.731 768.772 296.455 772.069 386.207ZM386.207 206.386C346.331 205.255 307.186 199.31 269.366 188.69C297.324 131.338 336.8 79.5724 386.207 36.469V206.386ZM386.207 233.972V386.207H221.076C222.772 326.234 235.352 268.069 257.848 214.138C299.31 226.152 342.359 232.8 386.207 233.972ZM413.793 233.972C457.641 232.8 500.69 226.166 542.165 214.138C564.662 268.069 577.241 326.234 578.938 386.207H413.793V233.972ZM413.793 206.386V36.469C463.2 79.5724 502.676 131.338 530.634 188.69C492.814 199.31 453.669 205.255 413.793 206.386ZM557.366 180.303C530.869 124.786 494.097 74.2069 448.566 30.8552C529.338 41.4207 602.014 77.9448 657.986 131.793C626.207 151.959 592.497 168.179 557.366 180.303ZM242.634 180.303C207.503 168.179 173.793 151.959 142.028 131.793C197.986 77.9448 270.676 41.4207 351.448 30.8552C305.903 74.2069 269.131 124.786 242.634 180.303ZM221.076 413.793H386.207V552.248C340.593 553.462 295.903 560.579 252.952 573.503C233.545 523.09 222.634 469.228 221.076 413.793ZM386.207 579.834V763.531C333.324 717.393 291.862 661.338 263.669 599.159C303.214 587.503 344.29 581.021 386.207 579.834ZM413.793 763.531V579.834C455.71 581.007 496.786 587.503 536.331 599.145C508.138 661.338 466.676 717.393 413.793 763.531ZM413.793 552.248V413.793H578.924C577.366 469.228 566.455 523.09 547.034 573.517C504.097 560.579 459.407 553.462 413.793 552.248ZM606.51 413.793H772.069C768.924 499.448 736.772 577.807 685.076 639.283C649.931 615.531 612.428 596.497 573.2 582.303C593.545 529.076 604.952 472.262 606.51 413.793ZM133.669 659.945C166.303 638.262 201.048 620.828 237.352 607.793C264.179 667.931 302.69 722.731 351.434 769.145C266.593 758.041 190.662 718.317 133.669 659.945ZM448.566 769.145C497.31 722.745 535.821 667.945 562.648 607.793C598.952 620.828 633.683 638.262 666.331 659.945C609.338 718.317 533.407 758.041 448.566 769.145Z" fill="white"/>
</g>
<defs>
<clipPath id="clip0_36_5">
<rect width="800" height="800" fill="white"/>
</clipPath>
</defs>
</svg>
