<svg width="1519" height="854" viewBox="0 0 1519 854" fill="none" xmlns="http://www.w3.org/2000/svg">
<path d="M0.226196 51H1446.39V724H0.226196V51Z" fill="#0089ED"/>
<path d="M1439.88 609C1439.88 628.034 1424.38 643.5 1405.2 643.5C1386.03 643.5 1370.52 628.034 1370.52 609C1370.52 589.966 1386.03 574.5 1405.2 574.5C1424.38 574.5 1439.88 589.966 1439.88 609Z" stroke="white" stroke-opacity="0.54" stroke-width="9"/>
<path d="M1296.22 690C1296.22 700.75 1287.46 709.5 1276.61 709.5C1265.76 709.5 1257 700.75 1257 690C1257 679.25 1265.76 670.5 1276.61 670.5C1287.46 670.5 1296.22 679.25 1296.22 690Z" stroke="white" stroke-opacity="0.54" stroke-width="9"/>
<path d="M54.4971 126C54.4971 136.75 45.7365 145.5 34.886 145.5C24.0354 145.5 15.2748 136.75 15.2748 126C15.2748 115.25 24.0354 106.5 34.886 106.5C45.7365 106.5 54.4971 115.25 54.4971 126Z" stroke="white" stroke-opacity="0.54" stroke-width="9"/>
<path d="M147.928 51C147.928 76.6617 127.023 97.5 101.192 97.5C75.3603 97.5 54.4554 76.6617 54.4554 51C54.4554 25.3383 75.3603 4.5 101.192 4.5C127.023 4.5 147.928 25.3383 147.928 51Z" stroke="white" stroke-opacity="0.54" stroke-width="9"/>
<path d="M1350.97 658C1350.97 664.058 1346.03 669 1339.9 669C1333.77 669 1328.83 664.058 1328.83 658C1328.83 651.942 1333.77 647 1339.9 647C1346.03 647 1350.97 651.942 1350.97 658Z" stroke="white" stroke-opacity="0.54" stroke-width="8"/>
<path d="M1514.23 756C1514.23 807.619 1472.18 849.5 1420.27 849.5C1368.36 849.5 1326.32 807.619 1326.32 756C1326.32 704.381 1368.36 662.5 1420.27 662.5C1472.18 662.5 1514.23 704.381 1514.23 756Z" stroke="white" stroke-opacity="0.54" stroke-width="9"/>
<ellipse cx="462.357" cy="400.5" rx="7.53473" ry="7.5" fill="white"/>
</svg>
