<svg width="23" height="23" viewBox="0 0 23 23" fill="none" xmlns="http://www.w3.org/2000/svg">
<path d="M11.5 1.4375C5.94316 1.4375 1.4375 5.94316 1.4375 11.5C1.4375 17.0568 5.94316 21.5625 11.5 21.5625C17.0568 21.5625 21.5625 17.0568 21.5625 11.5C21.5625 5.94316 17.0568 1.4375 11.5 1.4375ZM11.5 19.8555C6.88652 19.8555 3.14453 16.1135 3.14453 11.5C3.14453 6.88652 6.88652 3.14453 11.5 3.14453C16.1135 3.14453 19.8555 6.88652 19.8555 11.5C19.8555 16.1135 16.1135 19.8555 11.5 19.8555ZM11.6258 7.89053C12.8162 7.89053 13.6248 8.64971 13.7146 9.76377C13.7214 9.85811 13.8 9.92998 13.8943 9.92998H15.1679C15.2263 9.92998 15.2734 9.88281 15.2734 9.82441C15.2734 7.87705 13.7371 6.51367 11.619 6.51367C9.15059 6.51367 7.72656 8.18027 7.72656 10.934V12.1087C7.72656 14.8422 9.15059 16.4863 11.619 16.4863C13.7304 16.4863 15.2734 15.1656 15.2734 13.3104C15.2734 13.252 15.2263 13.2048 15.1679 13.2048H13.8921C13.7978 13.2048 13.7214 13.2767 13.7124 13.3688C13.6181 14.4042 12.8117 15.1162 11.6235 15.1162C10.1568 15.1162 9.33027 14.0403 9.33027 12.1154V10.934C9.33252 8.97988 10.1613 7.89053 11.6258 7.89053V7.89053Z" fill="white"/>
</svg>
