<svg width="50" height="50" viewBox="0 0 50 50" fill="none" xmlns="http://www.w3.org/2000/svg">
<g clip-path="url(#clip0_12_288)">
<path d="M24.8686 7.85364C20.5626 7.85364 17.072 11.929 17.072 16.9563C17.072 20.4429 18.751 23.471 21.2165 24.9999L18.3574 26.325L10.7491 29.8536C10.0141 30.2212 9.64729 30.8444 9.64729 31.7264V40.1057C9.70775 41.1533 10.3363 42.1297 11.3555 42.1462H38.423C39.5865 42.0451 40.175 41.1079 40.1865 40.1057V31.7264C40.1865 30.8444 39.8197 30.2212 39.0847 29.8536L31.7519 26.325L28.7045 24.8812C31.0688 23.3179 32.6653 20.3552 32.6653 16.9564C32.6653 11.929 29.1746 7.85364 24.8686 7.85364V7.85364ZM12.2926 11.0546C10.4396 11.125 8.971 11.9268 7.85525 13.2045C6.62108 14.7427 6.01942 16.569 6.00779 18.3859C6.08358 21.0724 7.28567 23.6158 9.42567 24.9461L0.881792 28.9165C0.29375 29.137 0 29.6514 0 30.46V37.1849C0.0459167 38.0767 0.509 38.8263 1.37729 38.8392H7.05579V31.7264C7.14975 29.8248 8.04275 28.2877 9.64729 27.5376L15.3243 24.8369C15.7653 24.5796 16.188 24.2299 16.5923 23.7889C14.2516 20.1774 13.9266 15.8518 15.4351 12.0473C14.454 11.4468 13.3513 11.0609 12.2926 11.0546V11.0546ZM37.6504 11.0546C36.4386 11.08 35.3187 11.5263 34.3988 12.1565C35.8661 15.9955 35.4614 20.3238 33.2953 23.6781C33.7731 24.2294 34.2705 24.6521 34.785 24.9462L40.2419 27.5376C41.9043 28.4493 42.7615 30.0001 42.778 31.7265V38.8392H48.6211C49.5821 38.7563 49.9917 37.9898 50 37.1849V30.46C50 29.725 49.7063 29.2106 49.1182 28.9165L40.6836 24.8907C42.871 23.2779 43.9694 20.8607 43.9906 18.3859C43.9325 16.427 43.3341 14.6082 42.1432 13.2045C40.8988 11.8545 39.3553 11.0689 37.6504 11.0546V11.0546Z" fill="#0163E0"/>
</g>
<defs>
<clipPath id="clip0_12_288">
<rect width="50" height="50" fill="white"/>
</clipPath>
</defs>
</svg>
